<?xml version="1.0" encoding="utf-8"?>
<!-- Generator: Adobe Illustrator 23.0.5, SVG Export Plug-In . SVG Version: 6.00 Build 0)  -->
<svg version="1.1" id="Layer_1" xmlns="http://www.w3.org/2000/svg" xmlns:xlink="http://www.w3.org/1999/xlink" x="0px" y="0px"
	 viewBox="0 0 41 41" style="enable-background:new 0 0 41 41;" xml:space="preserve">
<style type="text/css">
	.st0{clip-path:url(#SVGID_2_);}
	.st1{fill:none;stroke:#02FCFA;stroke-width:1.5;stroke-linecap:round;stroke-linejoin:round;}
</style>
<g>
	<defs>
		<rect id="SVGID_1_" x="0.8" y="0.6" width="40" height="40"/>
	</defs>
	<clipPath id="SVGID_2_">
		<use xlink:href="#SVGID_1_"  style="overflow:visible;"/>
	</clipPath>
	<g class="st0">
		<path class="st1" d="M36.6,4.9l-9.7,9.7"/>
		<path class="st1" d="M5.1,4.9l9.7,9.7"/>
		<path class="st1" d="M5.1,36.4l9.7-9.7"/>
		<path class="st1" d="M36.6,36.4l-9.7-9.7"/>
		<path class="st1" d="M20.8,39.2c10.3,0,18.6-8.3,18.6-18.6c0-10.3-8.3-18.6-18.6-18.6S2.3,10.4,2.3,20.6
			C2.3,30.9,10.6,39.2,20.8,39.2z"/>
		<path class="st1" d="M20.8,29.1c4.7,0,8.4-3.8,8.4-8.4c0-4.7-3.8-8.4-8.4-8.4s-8.4,3.8-8.4,8.4C12.4,25.3,16.2,29.1,20.8,29.1z"/>
	</g>
</g>
</svg>
