<?xml version="1.0" encoding="utf-8"?>
<!-- Generator: Adobe Illustrator 23.0.5, SVG Export Plug-In . SVG Version: 6.00 Build 0)  -->
<svg version="1.1" id="Layer_1" xmlns="http://www.w3.org/2000/svg" xmlns:xlink="http://www.w3.org/1999/xlink" x="0px" y="0px"
	 viewBox="0 0 60 61" style="enable-background:new 0 0 60 61;" xml:space="preserve">
<style type="text/css">
	.st0{fill:#02FCFA;}
</style>
<path class="st0" d="M40.6,20.8c0.2-0.4,0.2-1,0-1.4c-1.8-3.6-5.6-5.9-9.6-5.8c-4.1-0.1-7.8,2.2-9.6,5.8c-0.2,0.4-0.2,1,0,1.4
	c1.8,3.6,5.6,5.9,9.6,5.8C35.1,26.7,38.8,24.4,40.6,20.8z"/>
<path class="st0" d="M16.3,42.9c-4.1-0.1-7.8,2.2-9.6,5.8c-0.2,0.4-0.2,1,0,1.4c1.8,3.6,5.6,5.9,9.6,5.8c4.1,0.1,7.8-2.2,9.6-5.8
	c0.2-0.4,0.2-1,0-1.4C24.1,45.1,20.4,42.9,16.3,42.9z"/>
<path class="st0" d="M55.3,48.8c-2.8-5.3-9.4-7.4-14.7-4.6c-2,1-3.6,2.6-4.6,4.6c-0.2,0.4-0.2,1,0,1.4c2.8,5.3,9.4,7.4,14.7,4.6
	c2-1,3.6-2.6,4.6-4.6C55.5,49.7,55.5,49.2,55.3,48.8z"/>
<circle class="st0" cx="31" cy="11.9" r="4.9"/>
<circle class="st0" cx="16.3" cy="41.3" r="4.9"/>
<circle class="st0" cx="45.7" cy="41.3" r="4.9"/>
<path class="st0" d="M37.5,38c-0.4,0-0.9-0.2-1.2-0.5L31,32.2l-5.4,5.4c-0.6,0.6-1.7,0.6-2.3,0c-0.6-0.6-0.6-1.7,0-2.3l6.5-6.5
	c0.6-0.6,1.7-0.6,2.3,0c0,0,0,0,0,0l6.5,6.5c0.6,0.6,0.6,1.7,0,2.3c0,0,0,0,0,0C38.4,37.9,38,38,37.5,38z"/>
</svg>
