<?xml version="1.0" encoding="utf-8"?>
<!-- Generator: Adobe Illustrator 23.0.5, SVG Export Plug-In . SVG Version: 6.00 Build 0)  -->
<svg version="1.1" id="Layer_1" xmlns="http://www.w3.org/2000/svg" xmlns:xlink="http://www.w3.org/1999/xlink" x="0px" y="0px"
	 viewBox="0 0 51 51" style="enable-background:new 0 0 51 51;" xml:space="preserve">
<style type="text/css">
	.st0{fill:none;stroke:#02FCFA;stroke-width:1.5;stroke-linecap:round;stroke-linejoin:round;}
</style>
<path class="st0" d="M41.9,18.6c0,8.9-16.1,30.4-16.1,30.4S9.8,27.5,9.8,18.6c0-4.3,1.7-8.4,4.7-11.4c3-3,7.1-4.7,11.4-4.7
	s8.4,1.7,11.4,4.7C40.2,10.2,41.9,14.3,41.9,18.6L41.9,18.6z"/>
<path class="st0" d="M25.8,24c3,0,5.4-2.4,5.4-5.4c0-3-2.4-5.4-5.4-5.4c-3,0-5.4,2.4-5.4,5.4C20.5,21.6,22.9,24,25.8,24z"/>
</svg>
