<?xml version="1.0" encoding="utf-8"?>
<!-- Generator: Adobe Illustrator 23.0.5, SVG Export Plug-In . SVG Version: 6.00 Build 0)  -->
<svg version="1.1" id="Layer_1" xmlns="http://www.w3.org/2000/svg" xmlns:xlink="http://www.w3.org/1999/xlink" x="0px" y="0px"
	 viewBox="0 0 40 41" style="enable-background:new 0 0 40 41;" xml:space="preserve">
<style type="text/css">
	.st0{clip-path:url(#SVGID_2_);}
	.st1{fill:none;stroke:#02FCFA;stroke-width:1.5;stroke-linecap:round;stroke-linejoin:round;}
</style>
<g>
	<defs>
		<rect id="SVGID_1_" y="0.9" width="40" height="40"/>
	</defs>
	<clipPath id="SVGID_2_">
		<use xlink:href="#SVGID_1_"  style="overflow:visible;"/>
	</clipPath>
	<g class="st0">
		<path class="st1" d="M12.9,22.3H10c-1.6,0-2.9,1.3-2.9,2.9v11.4c0,1.6,1.3,2.9,2.9,2.9h2.9c1.6,0,2.9-1.3,2.9-2.9V25.2
			C15.7,23.6,14.4,22.3,12.9,22.3z"/>
		<path class="st1" d="M30,22.3h-2.9c-1.6,0-2.9,1.3-2.9,2.9v11.4c0,1.6,1.3,2.9,2.9,2.9H30c1.6,0,2.9-1.3,2.9-2.9V25.2
			C32.9,23.6,31.6,22.3,30,22.3z"/>
		<path class="st1" d="M1.4,28v-7.1c0-4.9,2-9.6,5.4-13.1c3.5-3.5,8.2-5.4,13.1-5.4c4.9,0,9.6,2,13.1,5.4c3.5,3.5,5.4,8.2,5.4,13.1
			V28"/>
	</g>
</g>
</svg>
