<?xml version="1.0" encoding="utf-8"?>
<!-- Generator: Adobe Illustrator 23.0.5, SVG Export Plug-In . SVG Version: 6.00 Build 0)  -->
<svg version="1.1" id="Layer_1" xmlns="http://www.w3.org/2000/svg" xmlns:xlink="http://www.w3.org/1999/xlink" x="0px" y="0px"
	 viewBox="0 0 41 41" style="enable-background:new 0 0 41 41;" xml:space="preserve">
<style type="text/css">
	.st0{clip-path:url(#SVGID_2_);}
	.st1{fill:none;stroke:#02FCFA;stroke-linecap:round;stroke-linejoin:round;}
	.st2{fill:none;stroke:#02FCFA;stroke-width:1.5;stroke-linecap:round;stroke-linejoin:round;}
</style>
<g>
	<defs>
		<rect id="SVGID_1_" x="0.5" y="0.9" width="40" height="40"/>
	</defs>
	<clipPath id="SVGID_2_">
		<use xlink:href="#SVGID_1_"  style="overflow:visible;"/>
	</clipPath>
	<g class="st0">
		<path class="st1" d="M20.5,29.5v2.9"/>
		<path class="st1" d="M20.5,15.2v2.7"/>
		<path class="st2" d="M20.5,39.4c10,0,17.1-3.5,17.1-11.4c0-8.6-4.3-14.3-12.9-18.6l3.4-4.3c0.2-0.3,0.3-0.6,0.3-0.9
			c0-0.3-0.1-0.7-0.2-1c-0.2-0.3-0.4-0.5-0.7-0.7c-0.3-0.2-0.6-0.3-0.9-0.3H14.4c-0.3,0-0.7,0.1-0.9,0.3c-0.3,0.2-0.5,0.4-0.7,0.7
			s-0.2,0.6-0.2,1c0,0.3,0.1,0.7,0.3,0.9l3.4,4.4c-8.6,4.3-12.9,10-12.9,18.6C3.4,35.9,10.5,39.4,20.5,39.4z"/>
		<path class="st2" d="M17.6,28.2c0.3,0.4,0.8,0.7,1.3,1c0.5,0.2,1,0.3,1.6,0.3c0.8,0.1,1.6-0.2,2.3-0.7c0.6-0.5,1-1.3,1.1-2.1
			c-0.1-0.8-0.5-1.6-1.1-2.1c-0.6-0.5-1.4-0.8-2.3-0.7c-0.8,0.1-1.6-0.2-2.3-0.7c-0.6-0.5-1-1.3-1.1-2.1c0.1-0.8,0.5-1.6,1.1-2.1
			c0.6-0.5,1.5-0.8,2.3-0.7c0.5,0,1.1,0.1,1.6,0.3c0.5,0.2,0.9,0.5,1.3,0.9"/>
	</g>
</g>
</svg>
