<?xml version="1.0" encoding="utf-8"?>
<!-- Generator: Adobe Illustrator 23.0.5, SVG Export Plug-In . SVG Version: 6.00 Build 0)  -->
<svg version="1.1" id="Layer_1" xmlns="http://www.w3.org/2000/svg" xmlns:xlink="http://www.w3.org/1999/xlink" x="0px" y="0px"
	 viewBox="0 0 60 61" style="enable-background:new 0 0 60 61;" xml:space="preserve">
<style type="text/css">
	.st0{fill:#02FCFA;}
</style>
<path class="st0" d="M15.8,29.1c5.4,0,9.5-2.1,9.5-4v-3.1c-2.1,1.5-5.5,2.5-9.5,2.5s-7.4-1-9.5-2.5v3.1C6.3,27,10.4,29.1,15.8,29.1z
	 M15.8,35.3c5.6,0,9.5-2.1,9.5-4v-2.6c-2.1,1.5-5.5,2.5-9.5,2.5s-7.4-1-9.5-2.5v2.6C6.3,33.2,10.2,35.3,15.8,35.3L15.8,35.3z
	 M15.8,42c5.4,0,9.5-2.1,9.5-4V35c-2.1,1.5-5.5,2.5-9.5,2.5s-7.4-1-9.5-2.5V38C6.3,39.9,10.4,42,15.8,42z M15.8,48.8
	c5.4,0,9.5-2.1,9.5-4v-3.1c-2.1,1.5-5.5,2.5-9.5,2.5s-7.4-1-9.5-2.5v3.1C6.3,46.7,10.4,48.8,15.8,48.8L15.8,48.8z M15.8,14.4
	c-5.6,0-9.5,2.1-9.5,4c0,1.9,3.9,4,9.5,4s9.5-2.1,9.5-4C25.3,16.5,21.4,14.4,15.8,14.4z M15.8,12.3c6.7,0,11.7,2.6,11.7,6.1v26.9
	c0,0.2-0.1,0.4-0.2,0.6c-1,2.9-5.6,5-11.5,5s-10.5-2.1-11.5-5c-0.1-0.2-0.2-0.4-0.2-0.6V18.4C4.1,14.9,9.2,12.3,15.8,12.3L15.8,12.3
	z M51.9,27.5c3.6,1.2,6,4.6,6,8.4c0,4.9-4,8.9-8.9,8.9c-3.2,0-6.2-1.8-7.8-4.6c-0.3-0.5-0.1-1.2,0.4-1.5c0.5-0.3,1.2-0.1,1.5,0.4
	c1.2,2.2,3.4,3.5,5.9,3.5c3.7,0,6.7-3,6.7-6.7c0-2.9-1.8-5.4-4.5-6.4c-0.6-0.2-0.9-0.8-0.7-1.4C50.8,27.6,51.4,27.3,51.9,27.5
	L51.9,27.5z M47.6,27.3c0,4.9-4,8.9-8.9,8.9c-4.9,0-8.9-4-8.9-8.9c0-4.9,4-8.9,8.9-8.9C43.6,18.5,47.6,22.4,47.6,27.3L47.6,27.3z
	 M38.7,34c3.7,0,6.7-3,6.7-6.7c0-3.7-3-6.7-6.7-6.7c-3.7,0-6.7,3-6.7,6.7C32,31,35,34,38.7,34z"/>
</svg>
