<?xml version="1.0" encoding="utf-8"?>
<!-- Generator: Adobe Illustrator 23.0.5, SVG Export Plug-In . SVG Version: 6.00 Build 0)  -->
<svg version="1.1" id="Layer_1" xmlns="http://www.w3.org/2000/svg" xmlns:xlink="http://www.w3.org/1999/xlink" x="0px" y="0px"
	 viewBox="0 0 60 61" style="enable-background:new 0 0 60 61;" xml:space="preserve">
<style type="text/css">
	.st0{fill-rule:evenodd;clip-rule:evenodd;fill:#02FCFA;}
</style>
<path class="st0" d="M47,13c0,1.7,1.4,3.1,3.1,3.1s3.1-1.4,3.1-3.1S51.7,9.9,50,9.9S47,11.3,47,13z M50,19.2c-3.4,0-6.2-2.8-6.2-6.2
	s2.8-6.2,6.2-6.2c3.4,0,6.2,2.8,6.2,6.2S53.4,19.2,50,19.2z"/>
<path class="st0" d="M3.8,14.5c0,4.3,3.5,7.7,7.7,7.7c1.2,0,2.3-0.3,3.3-0.7c0.1,0.1,0.1,0.2,0.2,0.3l5.7,5.7
	c-1,1.6-1.5,3.5-1.5,5.5c0,6,4.8,10.8,10.8,10.8c1.2,0,2.3-0.2,3.4-0.5l0.8,1.6c-1.6,1.1-2.7,3-2.7,5.1c0,3.4,2.8,6.2,6.2,6.2
	c3.4,0,6.2-2.8,6.2-6.2c0-3.4-2.8-6.2-6.2-6.2c-0.2,0-0.4,0-0.6,0l-1-2c2.8-1.9,4.6-5.2,4.6-8.9c0-2.4-0.8-4.7-2.2-6.5
	c0.1,0,0.1-0.1,0.2-0.1l4.6-4.6c0.6-0.6,0.6-1.6,0-2.2c-0.6-0.6-1.6-0.6-2.2,0l-4.6,4.6c-0.1,0.1-0.1,0.1-0.1,0.2
	c-1.8-1.4-4-2.2-6.5-2.2c-2.8,0-5.4,1.1-7.3,2.8l-5.4-5.4c1.2-1.4,1.9-3.2,1.9-5.1c0-4.3-3.5-7.7-7.7-7.7S3.8,10.3,3.8,14.5z
	 M11.5,19.2c-2.6,0-4.6-2.1-4.6-4.6s2.1-4.6,4.6-4.6s4.6,2.1,4.6,4.6S14.1,19.2,11.5,19.2z M37.7,53.1c-1.7,0-3.1-1.4-3.1-3.1
	c0-1.7,1.4-3.1,3.1-3.1c1.7,0,3.1,1.4,3.1,3.1C40.8,51.7,39.4,53.1,37.7,53.1z M30,40.7c-4.3,0-7.7-3.5-7.7-7.7s3.5-7.7,7.7-7.7
	s7.7,3.5,7.7,7.7S34.3,40.7,30,40.7z"/>
</svg>
