<?xml version="1.0" encoding="utf-8"?>
<!-- Generator: Adobe Illustrator 23.0.5, SVG Export Plug-In . SVG Version: 6.00 Build 0)  -->
<svg version="1.1" id="Layer_1" xmlns="http://www.w3.org/2000/svg" xmlns:xlink="http://www.w3.org/1999/xlink" x="0px" y="0px"
	 viewBox="0 0 50 51" style="enable-background:new 0 0 50 51;" xml:space="preserve">
<style type="text/css">
	.st0{fill:#02FCFA;}
</style>
<path class="st0" d="M45.6,7.6H4.4C2,7.6,0,9.5,0,12v26.4c0,2.4,2,4.4,4.4,4.4h41.2c2.4,0,4.4-2,4.4-4.4V12C50,9.6,48,7.6,45.6,7.6z
	 M45,10.5c-0.9,0.9-16.3,16.3-16.9,16.8c-0.8,0.8-1.9,1.3-3.1,1.3s-2.3-0.5-3.1-1.3C21.5,26.9,6.3,11.7,5,10.5H45z M2.9,37.7V12.6
	l12.7,12.6L2.9,37.7z M5,39.8l12.7-12.6l2.2,2.1c1.4,1.4,3.2,2.1,5.2,2.1s3.8-0.8,5.2-2.1l2.2-2.1L45,39.8H5z M47.1,37.7L34.4,25.2
	l12.7-12.6V37.7z"/>
</svg>
