<?xml version="1.0" encoding="utf-8"?>
<!-- Generator: Adobe Illustrator 23.0.5, SVG Export Plug-In . SVG Version: 6.00 Build 0)  -->
<svg version="1.1" id="Layer_1" xmlns="http://www.w3.org/2000/svg" xmlns:xlink="http://www.w3.org/1999/xlink" x="0px" y="0px"
	 viewBox="0 0 41 41" style="enable-background:new 0 0 41 41;" xml:space="preserve">
<style type="text/css">
	.st0{clip-path:url(#SVGID_2_);}
	.st1{fill:none;stroke:#02FCFA;stroke-width:1.5;stroke-linecap:round;stroke-linejoin:round;}
</style>
<g>
	<defs>
		<rect id="SVGID_1_" x="0.5" y="0.9" width="40" height="40"/>
	</defs>
	<clipPath id="SVGID_2_">
		<use xlink:href="#SVGID_1_"  style="overflow:visible;"/>
	</clipPath>
	<g class="st0">
		<path class="st1" d="M37.4,16.6H3.6c-1.6,0-2.3-1.7-1-2.6L19.5,3c0.3-0.2,0.7-0.3,1-0.3s0.7,0.1,1,0.3L38.4,14
			C39.7,14.9,39,16.6,37.4,16.6z"/>
		<path class="st1" d="M37.6,32.3H3.4c-0.8,0-1.4,0.6-1.4,1.4V38c0,0.8,0.6,1.4,1.4,1.4h34.3c0.8,0,1.4-0.6,1.4-1.4v-4.3
			C39.1,33,38.4,32.3,37.6,32.3z"/>
		<path class="st1" d="M6.2,16.6v15.7"/>
		<path class="st1" d="M13.4,16.6v15.7"/>
		<path class="st1" d="M20.5,16.6v15.7"/>
		<path class="st1" d="M27.6,16.6v15.7"/>
		<path class="st1" d="M34.8,16.6v15.7"/>
	</g>
</g>
</svg>
