<?xml version="1.0" encoding="utf-8"?>
<!-- Generator: Adobe Illustrator 23.0.5, SVG Export Plug-In . SVG Version: 6.00 Build 0)  -->
<svg version="1.1" id="Layer_1" xmlns="http://www.w3.org/2000/svg" xmlns:xlink="http://www.w3.org/1999/xlink" x="0px" y="0px"
	 viewBox="0 0 41 41" style="enable-background:new 0 0 41 41;" xml:space="preserve">
<style type="text/css">
	.st0{clip-path:url(#SVGID_2_);}
	.st1{fill:none;stroke:#02FCFA;stroke-width:1.5;stroke-linecap:round;stroke-linejoin:round;}
</style>
<g>
	<defs>
		<rect id="SVGID_1_" x="0.2" y="0.5" width="40" height="40"/>
	</defs>
	<clipPath id="SVGID_2_">
		<use xlink:href="#SVGID_1_"  style="overflow:visible;"/>
	</clipPath>
	<g class="st0">
		<path class="st1" d="M35.9,1.9H4.5c-1.6,0-2.9,1.3-2.9,2.9v31.4c0,1.6,1.3,2.9,2.9,2.9h31.4c1.6,0,2.9-1.3,2.9-2.9V4.8
			C38.7,3.2,37.5,1.9,35.9,1.9z"/>
		<path class="st1" d="M20.2,33.3c5.5,0,10-4.5,10-10c0-5.5-4.5-10-10-10c-5.5,0-10,4.5-10,10C10.2,28.9,14.6,33.3,20.2,33.3z"/>
		<path class="st1" d="M1.6,10.5h8.6"/>
		<path class="st1" d="M30.2,10.5h8.6"/>
		<path class="st1" d="M20.2,23.2v10"/>
		<path class="st1" d="M11.6,18.2l8.6,5.1"/>
		<path class="st1" d="M28.7,18.2l-8.6,5.1"/>
	</g>
</g>
</svg>
