<?xml version="1.0" encoding="utf-8"?>
<!-- Generator: Adobe Illustrator 23.0.5, SVG Export Plug-In . SVG Version: 6.00 Build 0)  -->
<svg version="1.1" id="Layer_1" xmlns="http://www.w3.org/2000/svg" xmlns:xlink="http://www.w3.org/1999/xlink" x="0px" y="0px"
	 viewBox="0 0 60 61" style="enable-background:new 0 0 60 61;" xml:space="preserve">
<style type="text/css">
	.st0{fill:#02FCFA;}
</style>
<path class="st0" d="M49.8,9.9L31.7,5.3l0,0c-0.2,0-0.4,0-0.6,0c-0.2,0-0.3,0-0.5,0l0,0L12.4,9.9c-2.4,0.6-4,2.8-3.8,5.3l1.1,13.9
	c0.9,11.2,7.9,21.1,18.3,25.5l2.2,1l0,0c0.6,0.2,1.2,0.2,1.8,0l0,0l2.2-1c10.4-4.4,17.4-14.3,18.3-25.5l1.1-13.9
	C53.6,12.8,52.1,10.6,49.8,9.9z M40.5,24.8L30.4,34.8c-1,1-2.6,1-3.6,0c0,0,0,0,0,0l-5-5c-1-1-1-2.6,0-3.6s2.6-1,3.6,0l3.3,3.3
	l8.3-8.3c1-1,2.6-1,3.6,0C41.4,22.2,41.4,23.8,40.5,24.8z"/>
</svg>
