<?xml version="1.0" encoding="utf-8"?>
<!-- Generator: Adobe Illustrator 23.0.5, SVG Export Plug-In . SVG Version: 6.00 Build 0)  -->
<svg version="1.1" id="Layer_1" xmlns="http://www.w3.org/2000/svg" xmlns:xlink="http://www.w3.org/1999/xlink" x="0px" y="0px"
	 viewBox="0 0 41 41" style="enable-background:new 0 0 41 41;" xml:space="preserve">
<style type="text/css">
	.st0{clip-path:url(#SVGID_2_);}
	.st1{fill:none;stroke:#02FCFA;stroke-width:1.5;stroke-linecap:round;stroke-linejoin:round;}
</style>
<g>
	<defs>
		<rect id="SVGID_1_" x="0.2" y="0.5" width="40" height="40"/>
	</defs>
	<clipPath id="SVGID_2_">
		<use xlink:href="#SVGID_1_"  style="overflow:visible;"/>
	</clipPath>
	<g class="st0">
		<path class="st1" d="M21.5,20.2c-0.4,0.2-0.9,0.3-1.3,0.3s-0.9-0.1-1.3-0.3L2.5,12.6c-0.3-0.1-0.5-0.3-0.6-0.6
			c-0.2-0.3-0.2-0.5-0.2-0.8s0.1-0.6,0.2-0.8c0.2-0.3,0.4-0.5,0.6-0.6l16.3-7.6c0.4-0.2,0.9-0.3,1.3-0.3s0.9,0.1,1.3,0.3l16.3,7.5
			c0.3,0.1,0.5,0.3,0.6,0.6c0.2,0.3,0.2,0.5,0.2,0.8c0,0.3-0.1,0.6-0.2,0.8c-0.2,0.3-0.4,0.5-0.6,0.6L21.5,20.2z"/>
		<path class="st1" d="M38.7,21.5l-17.4,8c-0.4,0.2-0.8,0.3-1.2,0.3c-0.4,0-0.8-0.1-1.2-0.3l-17.3-8"/>
		<path class="st1" d="M38.7,30.8l-17.4,8C20.9,39,20.5,39,20.1,39c-0.4,0-0.8-0.1-1.2-0.3l-17.3-8"/>
	</g>
</g>
</svg>
